PathFileType	4	(X/Y/Z)	Patient4_TMGait_0pt4_03_left_32.trc.trc
DataRate	CameraRate	NumFrames	NumMarkers	Units	OrigDataRate	OrigDataStartFrame	OrigNumFrames
74.074074074074	74.074074074074	4	33	mm	74.074074074074	1	       141
Frame#	Time	Sacral			L.Shoulder			Chest			R.Shoulder			Neck			R.ASIS			L.ASIS			R.Thigh.Superior			R.Thigh.Lateral			R.Thigh.Inferior			R.Patella			L.Thigh.Superior			L.Thigh.Lateral			L.Thigh.Inferior			L.Patella			L.Shank.Superior			L.Shank.Lateral			L.Shank.Inferior			R.Shank.Superior			R.Shank.Lateral			R.Shank.Inferior			R.Heel			R.Midfoot.Superior			R.Midfoot.Lateral			R.Toe			L.Heel			L.Midfoot.Lateral			L.Midfoot.Superior			L.Toe			L.Elbow			L.Wrist			R.Elbow			R.Wrist			
		X1	Y1	Z1	X2	Y2	Z2	X3	Y3	Z3	X4	Y4	Z4	X5	Y5	Z5	X6	Y6	Z6	X7	Y7	Z7	X8	Y8	Z8	X9	Y9	Z9	X10	Y10	Z10	X11	Y11	Z11	X12	Y12	Z12	X13	Y13	Z13	X14	Y14	Z14	X15	Y15	Z15	X16	Y16	Z16	X17	Y17	Z17	X18	Y18	Z18	X19	Y19	Z19	X20	Y20	Z20	X21	Y21	Z21	X22	Y22	Z22	X23	Y23	Z23	X24	Y24	Z24	X25	Y25	Z25	X26	Y26	Z26	X27	Y27	Z27	X28	Y28	Z28	X29	Y29	Z29	X30	Y30	Z30	X31	Y31	Z31	X32	Y32	Z32	X33	Y33	Z33	

1	42.210000000000	859.337072628958	1005.520262693736	510.213984419260	1013.738630411794	1436.774415747538	318.839742941116	1131.644724664559	1371.621596400036	471.218015424435	1062.271164614958	1441.607341700724	652.515213585301	1005.511037619805	1498.326472392464	478.298797225607	1096.267320456287	945.313887007208	611.508425276958	1062.936850968199	969.206743888955	339.024109845409	1128.587706617649	741.574505104562	582.007527563679	1044.824380986170	634.021762084116	643.857170832545	1118.886326441664	580.553089984784	562.333476495432	1115.527033147195	494.684510359497	567.594800533173	1149.074906880864	787.348571305177	354.699655543298	1099.744961355176	660.799849184213	274.160720087716	1210.501981291014	601.542826135158	321.157889580401	1226.070120860369	514.245671239462	310.605968791203	1165.786284129887	442.646099742908	306.392652014203	1026.673027993807	386.076362277188	264.389920027896	1032.002936215285	254.034298365953	315.971652793777	1088.765152538396	405.513365369051	574.258179730171	1017.804633326752	300.647721739146	635.455456763873	1060.887111666476	207.141690819751	568.948574205586	929.501457809147	42.067394580892	535.643008829816	1099.654154829206	96.757283923589	571.582680550055	1012.715242232736	36.796911928625	610.783558545057	1220.686865991520	46.471689926974	598.716845698284	852.683960090605	165.834587304507	362.211598718600	910.706309714206	129.610531033891	277.264443636489	1015.725636836869	150.690032313209	294.044203311799	1105.535834374840	50.311310738291	256.673427096423	975.719452899473	1080.970692315331	214.696900364563	1067.264525680075	835.298034808795	189.921577927758	1099.968407489153	1101.442684087754	788.917568853625	1314.370020170831	960.611152895488	754.229900496156	
2	42.223500000000	858.492336554785	1006.286474240986	511.953228588288	1012.274719052268	1437.184412298353	320.243418740061	1131.401954655391	1371.615295484983	471.466419085424	1063.902774307929	1441.745940766797	653.423416240011	1005.602091350747	1498.662526949423	479.563172046008	1095.507991806561	945.189029448364	611.809831531579	1060.952544473969	969.671852315739	339.611275320203	1125.507666102238	741.041327636459	582.177866639367	1041.051046402654	634.126908747536	644.465115272386	1114.234735999294	580.039486506627	562.804851840687	1110.349068320697	494.539365047793	568.215781233938	1147.444326045790	788.923082885145	354.780019633821	1099.049199316557	662.252437158350	273.818613598789	1209.873429757119	603.611931932609	320.992864946380	1226.689114827925	517.620761462209	310.110543002455	1169.626163024808	445.017709794729	305.356591737872	1034.158903118945	381.746914589401	263.099174762039	1046.952606578742	250.159752855079	313.310880350049	1083.271098742781	405.503887968304	574.756497944605	1012.158076931222	300.655545549033	635.757489872324	1055.235587406507	207.139665104789	569.273359499907	923.755268614538	42.013871323465	535.680135282514	1093.919980890664	96.748637233440	571.657217938550	1006.956158440244	36.762824296178	610.834016707331	1214.919073435539	46.481297355681	598.734855858521	873.921603997209	152.170508753187	359.181883981206	933.004448659341	120.152038773036	273.768569526125	1036.290678887318	146.652623509157	290.473420356062	1130.810583494650	52.199440278368	251.853167564556	966.939363720622	1082.203154288285	217.304417550016	1048.301340668611	833.724859917573	194.339724889192	1108.326163678632	1102.886457352997	789.393624126775	1328.156687358183	974.783039832354	750.532533359019	
3	42.237000000000	857.636689771506	1007.029683918792	513.627294143017	1010.845401058287	1437.568675810632	321.608382897623	1131.172087409574	1371.574051211735	471.685236428028	1065.528335497224	1441.836770901857	654.295057137477	1005.712328309182	1498.962346294602	480.794612055142	1094.744631907566	945.045073156861	612.080822565915	1059.007844368244	970.089654709865	340.154463338756	1122.454024116238	740.505181909508	582.305551012819	1037.340545383471	634.214690989276	645.054668156965	1109.635425126697	579.526449041329	563.243464720344	1105.226963115734	494.383262101988	568.812594524131	1145.735571238114	790.325470269702	354.870275842403	1098.203938254445	663.560280026556	273.489957081725	1208.998558723489	605.441940689811	320.946490204754	1227.045424784671	520.821930883751	309.735186011328	1173.255143794444	447.298884027606	304.384350114654	1041.655535893698	377.314297294226	261.724971095774	1061.950375808814	246.317682504016	310.615098193850	1077.832695511176	405.474489236230	575.229179251655	1006.575070031696	300.650438931448	636.051189867835	1049.626116010639	207.127446189062	569.580989265943	918.033611271525	41.963135035318	535.716985776203	1088.215623563080	96.738976526611	571.727610346239	1001.226770938026	36.730206011799	610.884611426681	1209.181499561050	46.489940541315	598.753401081637	895.422106626042	138.541133370620	355.974349234263	955.567593526491	110.808012570864	270.133820629451	1057.007548386872	142.740642981658	286.858811444315	1156.201068855645	54.346801996471	247.052592463209	958.207842074741	1083.455777235371	219.858639133512	1029.601790056420	832.283393638752	198.764136321526	1116.598976581126	1104.296070810093	789.816340287093	1341.660669151482	988.921041718171	746.799133894580	
4	42.250500000000	856.770754832508	1007.725723093406	515.169569164379	1009.493176097608	1437.905019195910	322.882288825960	1130.968789332528	1371.469707294606	471.839163152917	1067.131260150258	1441.844028563416	655.082834652331	1005.857401174397	1499.196514066808	481.945191659020	1093.983512263467	944.869689182780	612.289227196435	1057.139976613401	970.419002416279	340.608326914121	1119.468775521322	739.963751137209	582.355257631009	1033.756107669530	634.272319668637	645.599916793694	1105.146639986768	579.016536966992	563.615223774939	1100.221958669109	494.207936054855	569.354349960367	1143.880217737445	791.399772608258	354.965979117763	1097.070564585757	664.596763214117	273.173651238795	1207.681464954104	606.833287030231	321.076019283910	1226.917183577873	523.694054356380	309.553344592345	1176.470456471977	449.415493456005	303.516396131623	1049.108097557486	372.757881608198	260.227980995713	1076.917005988319	242.612461433319	307.886411940900	1072.513150758628	405.411481028616	575.647712361450	1001.121409434668	300.625604174660	636.324712572921	1044.106592934162	207.097623045258	569.853617487813	912.370811177848	41.918047858739	535.753369885597	1082.578322486679	96.728276368386	571.790918050645	995.564381704696	36.700139479186	610.934342919436	1203.511895880168	46.497282054817	598.772655658862	917.239262069165	125.164580260060	352.524048429286	978.441197303435	101.786503943915	266.330908768543	1077.845052571299	139.125277515989	283.212668023742	1181.601503908590	56.961455774250	242.362684524895	949.621969102634	1084.743712507227	222.300598600348	1011.482057633894	831.097987936539	203.174858876735	1124.673350129440	1105.643612878868	790.120473743105	1354.553699305941	1002.928810485425	743.008829766637	
